<?xml version="1.0" encoding="utf-8"?>
<!-- Generator: Adobe Illustrator 16.0.4, SVG Export Plug-In . SVG Version: 6.00 Build 0)  -->
<!DOCTYPE svg PUBLIC "-//W3C//DTD SVG 1.1//EN" "http://www.w3.org/Graphics/SVG/1.1/DTD/svg11.dtd">
<svg version="1.1" id="ico-001-Poco-nuboso" xmlns="http://www.w3.org/2000/svg" xmlns:xlink="http://www.w3.org/1999/xlink"
	 x="0px" y="0px" width="30px" height="30px" viewBox="185 185 30 30" enable-background="new 185 185 30 30" xml:space="preserve">
<g id="svg001">
	<g>
		<circle fill="#FFFFFF" cx="198.939" cy="200.211" r="10.222"/>
	</g>
	<g>
		<path fill="#FF6700" d="M210.322,207.957l-0.813-5.003c-0.023-0.146,0.012-0.296,0.099-0.416l2.963-4.113
			c0.181-0.25,0.123-0.599-0.127-0.779l-4.112-2.961c-0.119-0.087-0.2-0.218-0.225-0.364l-0.812-5.003
			c-0.05-0.305-0.336-0.511-0.641-0.461l-5.002,0.813c-0.147,0.024-0.297-0.011-0.416-0.098l-4.112-2.963
			c-0.25-0.18-0.599-0.123-0.779,0.127l-2.963,4.112c-0.086,0.12-0.217,0.201-0.363,0.225l-5.003,0.812
			c-0.304,0.049-0.511,0.336-0.461,0.641l0.813,5.003c0.023,0.146-0.012,0.296-0.098,0.416l-2.962,4.111
			c-0.181,0.25-0.124,0.601,0.126,0.78l4.112,2.962c0.121,0.086,0.201,0.218,0.226,0.363l0.812,5.003
			c0.05,0.306,0.336,0.511,0.641,0.462l5.002-0.813c0.146-0.023,0.296,0.012,0.417,0.098l4.113,2.964
			c0.25,0.181,0.599,0.124,0.779-0.127l2.961-4.111c0.087-0.121,0.218-0.201,0.364-0.225l5.003-0.813
			C210.165,208.549,210.372,208.261,210.322,207.957z M191.874,207.582c-4.244-4.089-4.152-10.897,0.201-14.872
			c3.941-3.599,10.085-3.516,13.928,0.188c4.243,4.09,4.151,10.898-0.2,14.872C201.859,211.369,195.716,211.286,191.874,207.582z"/>
		<path fill="#FFF200" d="M204.641,194.727l-0.019-0.019c-3.147-3.233-8.404-3.203-11.51,0.149
			c-1.247,1.346-1.992,3.101-2.094,4.934c-0.124,2.234,0.672,4.366,2.217,5.965l0.019,0.019c3.147,3.233,8.403,3.203,11.509-0.149
			c1.248-1.346,1.993-3.101,2.095-4.933C206.981,198.456,206.186,196.325,204.641,194.727z"/>
		<path fill="#FF681D" d="M192.556,206.411c-1.805-1.865-2.696-4.383-2.457-7.002c0.165-1.811,0.894-3.538,2.076-4.92
			c3.438-4.022,9.518-4.146,13.125-0.441l0.021,0.021c1.805,1.867,2.696,4.383,2.457,7.003c-0.165,1.811-0.894,3.538-2.075,4.92
			c-3.438,4.022-9.518,4.146-13.125,0.441L192.556,206.411z M204.641,194.727l-0.019-0.019c-3.147-3.233-8.404-3.203-11.509,0.149
			c-1.248,1.346-1.993,3.101-2.095,4.933c-0.124,2.235,0.672,4.367,2.217,5.966l0.019,0.019c3.147,3.233,8.403,3.203,11.509-0.149
			c1.248-1.346,1.993-3.101,2.095-4.933C206.981,198.457,206.186,196.325,204.641,194.727z"/>
	</g>
	<g>
		<g>
			<path fill="#FFFFFF" d="M209.625,188.109c-0.302,0-0.598,0.03-0.883,0.087c-1.006-0.972-2.376-1.571-3.886-1.571
				c-1.8,0-3.401,0.851-4.424,2.172c-1.663,0.078-2.987,1.451-2.987,3.133c0,1.538,1.108,2.817,2.568,3.084
				c0.967,1.67,2.773,2.794,4.843,2.794c1.192,0,2.297-0.374,3.205-1.01c0.486,0.182,1.014,0.281,1.563,0.281
				c2.478,0,4.485-2.009,4.485-4.486C214.11,190.117,212.103,188.109,209.625,188.109z"/>
		</g>
		<g>
			<path fill="#0086FF" d="M204.856,198.497c-2.132,0-4.126-1.094-5.278-2.875c-1.653-0.447-2.821-1.951-2.821-3.692
				c0-1.939,1.436-3.547,3.324-3.792c1.197-1.402,2.919-2.201,4.775-2.201c1.519,0,2.963,0.54,4.104,1.526
				c0.221-0.028,0.443-0.042,0.665-0.042c2.854,0,5.175,2.321,5.175,5.174s-2.321,5.174-5.175,5.174c-0.499,0-0.99-0.071-1.464-0.21
				C207.17,198.174,206.034,198.497,204.856,198.497z M204.856,187.314c-1.528,0-2.942,0.694-3.879,1.905l-0.195,0.251l-0.317,0.015
				c-1.307,0.061-2.331,1.135-2.331,2.445c0,1.182,0.843,2.195,2.003,2.407l0.313,0.057l0.159,0.275
				c0.875,1.512,2.502,2.451,4.246,2.451c1.013,0,1.983-0.306,2.81-0.884l0.296-0.208l0.339,0.126
				c0.424,0.158,0.869,0.237,1.324,0.237c2.094,0,3.797-1.703,3.797-3.797c0-2.094-1.703-3.797-3.797-3.797
				c-0.251,0-0.503,0.025-0.748,0.074l-0.354,0.07l-0.26-0.25C207.344,187.803,206.135,187.314,204.856,187.314z"/>
		</g>
	</g>
</g>
</svg>
