<?xml version="1.0" encoding="utf-8"?>
<!-- Generator: Adobe Illustrator 16.0.4, SVG Export Plug-In . SVG Version: 6.00 Build 0)  -->
<!DOCTYPE svg PUBLIC "-//W3C//DTD SVG 1.1//EN" "http://www.w3.org/Graphics/SVG/1.1/DTD/svg11.dtd">
<svg version="1.1" id="ico-022-Cubierto-chubascos" xmlns="http://www.w3.org/2000/svg" xmlns:xlink="http://www.w3.org/1999/xlink"
	 x="0px" y="0px" width="30px" height="30px" viewBox="185 185 30 30" enable-background="new 185 185 30 30" xml:space="preserve">
<g id="svg022">
	<g>
		<g>
			<g>
				<g>
					<path fill="#3381BC" d="M191.43,190.341c0.842-2.417,3.141-4.151,5.846-4.151c0.754,0,1.478,0.136,2.147,0.383
						c0.989-0.67,2.184-1.064,3.47-1.064c2.977,0,5.462,2.101,6.055,4.901c2.801,0.592,4.901,3.078,4.901,6.054
						c0,3.418-2.771,6.189-6.189,6.189h-15.321c-3.418,0-6.189-2.771-6.189-6.189C186.149,193.354,188.443,190.781,191.43,190.341"
						/>
				</g>
				<g>
					<path fill="#BAD2D8" d="M193.021,192.263c0.062-2.297,1.942-4.14,4.254-4.14c0.902,0,1.738,0.28,2.427,0.759
						c0.78-0.883,1.92-1.439,3.191-1.439c2.351,0,4.256,1.905,4.256,4.255c0,0.185-0.013,0.367-0.035,0.545
						c0.18-0.023,0.361-0.034,0.546-0.034c2.35,0,4.255,1.905,4.255,4.255s-1.905,4.255-4.255,4.255h-15.321
						c-2.35,0-4.255-1.905-4.255-4.255s1.905-4.255,4.255-4.255C192.571,192.208,192.799,192.227,193.021,192.263"/>
				</g>
			</g>
			<g>
				<g>
					<g>
						<path fill="#BAD2D8" d="M199.68,198.023c-0.31,0-0.612,0.031-0.905,0.089c-1.03-0.996-2.433-1.608-3.979-1.608
							c-1.843,0-3.483,0.872-4.531,2.224c-1.703,0.08-3.059,1.486-3.059,3.208c0,1.575,1.134,2.886,2.63,3.159
							c0.991,1.711,2.841,2.861,4.959,2.861c1.221,0,2.353-0.383,3.282-1.033c0.499,0.186,1.038,0.287,1.602,0.287
							c2.537,0,4.594-2.057,4.594-4.594C204.274,200.08,202.218,198.023,199.68,198.023z"/>
					</g>
					<g>
						<path fill="#3381BC" d="M194.796,208.662c-2.183,0-4.226-1.121-5.405-2.945c-1.693-0.457-2.89-1.998-2.89-3.78
							c0-1.986,1.471-3.633,3.405-3.884c1.226-1.437,2.991-2.254,4.89-2.254c1.556,0,3.034,0.553,4.203,1.563
							c0.226-0.029,0.454-0.043,0.681-0.043c2.922,0,5.299,2.377,5.299,5.299c0,2.922-2.377,5.299-5.299,5.299
							c-0.511,0-1.014-0.072-1.499-0.215C197.165,208.332,196.003,208.662,194.796,208.662z M194.796,197.209
							c-1.565,0-3.013,0.711-3.973,1.951l-0.199,0.257l-0.325,0.015c-1.339,0.063-2.387,1.163-2.387,2.504
							c0,1.212,0.863,2.249,2.052,2.466l0.32,0.059l0.163,0.281c0.896,1.549,2.563,2.51,4.349,2.51c1.037,0,2.032-0.312,2.877-0.906
							l0.304-0.211l0.347,0.129c0.434,0.16,0.89,0.242,1.356,0.242c2.144,0,3.889-1.744,3.889-3.889
							c0-2.144-1.745-3.889-3.889-3.889c-0.257,0-0.515,0.025-0.767,0.076l-0.362,0.072l-0.266-0.257
							C197.344,197.71,196.105,197.209,194.796,197.209z"/>
					</g>
				</g>
			</g>
		</g>
		<g>
			<g>
				<path fill="#FFFFFF" d="M198.042,213.951c-1.851,0-3.356-1.506-3.356-3.355c0-0.941,0.397-1.842,1.091-2.477l1.415-1.662
					c0.201-0.268,0.517-0.426,0.85-0.426c0.335,0,0.65,0.158,0.852,0.426l1.414,1.662c0.694,0.635,1.092,1.535,1.092,2.477
					C201.399,212.445,199.894,213.951,198.042,213.951z"/>
			</g>
			<g>
				<g>
					<path fill="#005CFF" d="M198.043,206.572c0.176,0,0.332,0.088,0.428,0.221l0,0l1.448,1.703c0.577,0.516,0.94,1.266,0.94,2.1
						c0,1.555-1.261,2.816-2.817,2.816c-1.555,0-2.816-1.262-2.816-2.816c0-0.834,0.363-1.584,0.94-2.1l1.448-1.703l0,0
						c0.095-0.133,0.251-0.221,0.428-0.221H198.043 M198.043,205.492h-0.001c-0.497,0-0.967,0.232-1.271,0.625l-1.384,1.627
						c-0.79,0.736-1.241,1.771-1.241,2.852c0,1.041,0.406,2.02,1.142,2.756c0.736,0.734,1.714,1.141,2.755,1.141
						c1.041,0,2.02-0.406,2.755-1.141c0.736-0.736,1.142-1.715,1.142-2.756c0-1.08-0.451-2.115-1.241-2.852l-1.384-1.627
						C199.011,205.725,198.541,205.492,198.043,205.492L198.043,205.492z"/>
				</g>
			</g>
		</g>
		<g>
			<g>
				<path fill="#FFFFFF" d="M207.068,207.631c-1.612,0-2.925-1.312-2.925-2.926c0-0.82,0.346-1.605,0.95-2.158l1.233-1.45
					c0.176-0.231,0.45-0.37,0.741-0.37c0.292,0,0.566,0.139,0.742,0.37l1.232,1.45c0.605,0.553,0.951,1.338,0.951,2.158
					C209.994,206.318,208.682,207.631,207.068,207.631z"/>
			</g>
			<g>
				<g>
					<path fill="#005CFF" d="M207.069,201.197c0.153,0,0.29,0.076,0.373,0.193l0,0l1.262,1.484c0.503,0.449,0.819,1.102,0.819,1.83
						c0,1.355-1.099,2.455-2.455,2.455c-1.355,0-2.454-1.1-2.454-2.455c0-0.729,0.316-1.381,0.818-1.83l1.263-1.484l0,0
						c0.083-0.117,0.22-0.193,0.372-0.193H207.069 M207.069,200.256L207.069,200.256c-0.435,0-0.844,0.203-1.108,0.544l-1.207,1.418
						c-0.688,0.643-1.081,1.543-1.081,2.486c0,0.906,0.353,1.76,0.994,2.4c0.642,0.643,1.495,0.996,2.402,0.996
						s1.76-0.354,2.401-0.996c0.642-0.641,0.994-1.494,0.994-2.4c0-0.943-0.394-1.844-1.081-2.486l-1.207-1.418
						C207.912,200.459,207.502,200.256,207.069,200.256L207.069,200.256z"/>
				</g>
			</g>
		</g>
	</g>
</g>
</svg>
