<?xml version="1.0" encoding="utf-8"?>
<!-- Generator: Adobe Illustrator 16.0.4, SVG Export Plug-In . SVG Version: 6.00 Build 0)  -->
<!DOCTYPE svg PUBLIC "-//W3C//DTD SVG 1.1//EN" "http://www.w3.org/Graphics/SVG/1.1/DTD/svg11.dtd">
<svg version="1.1" id="ico-019-Cubierto-llovizna" xmlns="http://www.w3.org/2000/svg" xmlns:xlink="http://www.w3.org/1999/xlink"
	 x="0px" y="0px" width="30px" height="30px" viewBox="185 185 30 30" enable-background="new 185 185 30 30" xml:space="preserve">
<g id="svg019">
	<g>
		<g>
			<g>
				<path fill="#3381BC" d="M191.43,190.311c0.842-2.417,3.141-4.152,5.846-4.152c0.753,0,1.478,0.136,2.147,0.383
					c0.989-0.671,2.184-1.064,3.47-1.064c2.976,0,5.462,2.101,6.055,4.9c2.801,0.592,4.901,3.078,4.901,6.054
					c0,3.418-2.771,6.189-6.189,6.189h-15.321c-3.418,0-6.189-2.771-6.189-6.189C186.149,193.324,188.443,190.75,191.43,190.311"/>
			</g>
			<g>
				<path fill="#BAD2D8" d="M193.021,192.232c0.062-2.297,1.942-4.14,4.254-4.14c0.902,0,1.738,0.281,2.426,0.759
					c0.78-0.883,1.921-1.44,3.19-1.44c2.352,0,4.257,1.905,4.257,4.255c0,0.185-0.013,0.367-0.035,0.545
					c0.179-0.022,0.361-0.034,0.546-0.034c2.35,0,4.255,1.905,4.255,4.255c0,2.35-1.905,4.256-4.255,4.256h-15.321
					c-2.35,0-4.255-1.906-4.255-4.256c0-2.35,1.905-4.255,4.255-4.255C192.571,192.178,192.799,192.196,193.021,192.232"/>
			</g>
		</g>
		<g>
			<g>
				<g>
					<path fill="#BAD2D8" d="M199.68,197.993c-0.31,0-0.612,0.031-0.905,0.089c-1.03-0.995-2.433-1.608-3.979-1.608
						c-1.844,0-3.483,0.872-4.531,2.225c-1.703,0.08-3.059,1.485-3.059,3.208c0,1.575,1.134,2.886,2.63,3.159
						c0.991,1.711,2.84,2.861,4.959,2.861c1.221,0,2.353-0.382,3.282-1.033c0.499,0.186,1.039,0.287,1.602,0.287
						c2.537,0,4.594-2.057,4.594-4.594C204.274,200.049,202.218,197.993,199.68,197.993z"/>
				</g>
				<g>
					<path fill="#3381BC" d="M194.796,208.632c-2.183,0-4.226-1.12-5.405-2.945c-1.693-0.457-2.89-1.998-2.89-3.78
						c0-1.986,1.471-3.633,3.405-3.884c1.226-1.437,2.99-2.254,4.89-2.254c1.556,0,3.034,0.552,4.203,1.563
						c0.226-0.029,0.454-0.044,0.681-0.044c2.922,0,5.299,2.377,5.299,5.3c0,2.922-2.377,5.299-5.299,5.299
						c-0.511,0-1.014-0.072-1.5-0.216C197.165,208.301,196.002,208.632,194.796,208.632z M194.796,197.179
						c-1.565,0-3.013,0.711-3.973,1.951l-0.199,0.257l-0.326,0.016c-1.338,0.062-2.387,1.162-2.387,2.504
						c0,1.211,0.863,2.248,2.052,2.465l0.32,0.059l0.163,0.282c0.896,1.548,2.563,2.51,4.349,2.51c1.037,0,2.031-0.313,2.877-0.906
						l0.303-0.212l0.347,0.129c0.434,0.161,0.89,0.243,1.356,0.243c2.144,0,3.888-1.745,3.888-3.889
						c0-2.145-1.744-3.889-3.888-3.889c-0.257,0-0.516,0.025-0.767,0.076l-0.362,0.072l-0.266-0.257
						C197.344,197.68,196.105,197.179,194.796,197.179z"/>
				</g>
			</g>
		</g>
	</g>
	<g>
		<g>
			<path fill="#FFFFFF" d="M201.519,214.064c-1.851,0-3.356-1.506-3.356-3.356c0-0.941,0.397-1.842,1.091-2.477l1.415-1.663
				c0.201-0.266,0.517-0.424,0.85-0.424c0.335,0,0.651,0.158,0.852,0.424l1.415,1.663c0.694,0.635,1.091,1.535,1.091,2.477
				C204.875,212.559,203.369,214.064,201.519,214.064z"/>
		</g>
		<g>
			<g>
				<path fill="#005CFF" d="M201.52,206.685c0.176,0,0.332,0.088,0.428,0.222l0,0l1.448,1.702c0.577,0.516,0.939,1.266,0.939,2.1
					c0,1.556-1.261,2.816-2.816,2.816c-1.555,0-2.816-1.261-2.816-2.816c0-0.834,0.363-1.584,0.939-2.1l1.449-1.702l0,0
					c0.095-0.134,0.251-0.222,0.427-0.222H201.52 M201.52,205.604h-0.002c-0.496,0-0.967,0.232-1.27,0.625l-1.384,1.627
					c-0.79,0.736-1.241,1.771-1.241,2.852c0,1.041,0.405,2.02,1.141,2.755c0.736,0.736,1.714,1.142,2.755,1.142
					c1.041,0,2.02-0.405,2.756-1.142c0.735-0.735,1.142-1.714,1.142-2.755c0-1.081-0.452-2.115-1.241-2.852l-1.385-1.627
					C202.487,205.837,202.017,205.604,201.52,205.604L201.52,205.604z"/>
			</g>
		</g>
	</g>
</g>
</svg>
