<?xml version="1.0" encoding="utf-8"?>
<!-- Generator: Adobe Illustrator 16.0.4, SVG Export Plug-In . SVG Version: 6.00 Build 0)  -->
<!DOCTYPE svg PUBLIC "-//W3C//DTD SVG 1.1//EN" "http://www.w3.org/Graphics/SVG/1.1/DTD/svg11.dtd">
<svg version="1.1" id="ico-010-Nuboso" xmlns="http://www.w3.org/2000/svg" xmlns:xlink="http://www.w3.org/1999/xlink" x="0px"
	 y="0px" width="30px" height="30px" viewBox="185 185 30 30" enable-background="new 185 185 30 30" xml:space="preserve">
<g id="svg010">
	<g>
		<g>
			<g>
				<circle fill="#FFFFFF" cx="196.329" cy="195.169" r="7.498"/>
			</g>
			<g>
				<path fill="#FF6700" d="M204.679,200.85l-0.597-3.669c-0.018-0.107,0.009-0.217,0.072-0.306l2.174-3.016
					c0.132-0.184,0.09-0.44-0.094-0.572l-3.016-2.172c-0.089-0.064-0.148-0.16-0.165-0.267l-0.596-3.67
					c-0.037-0.223-0.247-0.375-0.471-0.338l-3.669,0.596c-0.107,0.017-0.217-0.008-0.306-0.072l-3.016-2.174
					c-0.183-0.132-0.439-0.091-0.572,0.093l-2.173,3.016c-0.063,0.088-0.16,0.147-0.267,0.165l-3.67,0.596
					c-0.223,0.036-0.375,0.247-0.338,0.47l0.596,3.67c0.018,0.107-0.008,0.217-0.072,0.305l-2.173,3.016
					c-0.133,0.183-0.091,0.44,0.092,0.572l3.017,2.173c0.088,0.063,0.147,0.159,0.165,0.267l0.595,3.67
					c0.037,0.224,0.247,0.375,0.47,0.339l3.669-0.597c0.107-0.018,0.217,0.009,0.305,0.071l3.017,2.174
					c0.184,0.133,0.439,0.091,0.572-0.093l2.173-3.017c0.063-0.088,0.159-0.147,0.267-0.164l3.67-0.596
					C204.563,201.283,204.715,201.073,204.679,200.85z M191.146,200.576c-3.113-3.001-3.045-7.994,0.147-10.909
					c2.891-2.64,7.398-2.58,10.217,0.138c3.112,3,3.045,7.994-0.147,10.908C198.471,203.353,193.964,203.292,191.146,200.576z"/>
				<path fill="#FFF200" d="M200.511,191.146l-0.014-0.014c-2.309-2.372-6.165-2.35-8.443,0.109
					c-0.915,0.988-1.461,2.274-1.536,3.619c-0.091,1.64,0.493,3.203,1.626,4.375l0.014,0.014c2.309,2.373,6.165,2.349,8.441-0.109
					c0.916-0.987,1.462-2.274,1.537-3.619C202.228,193.881,201.645,192.318,200.511,191.146z"/>
				<path fill="#FF681D" d="M191.646,199.717c-1.324-1.37-1.978-3.215-1.802-5.137c0.121-1.328,0.656-2.595,1.522-3.609
					c2.522-2.95,6.982-3.041,9.628-0.323l0.015,0.016c1.323,1.369,1.978,3.214,1.803,5.136c-0.121,1.329-0.656,2.595-1.522,3.609
					c-2.522,2.951-6.982,3.042-9.628,0.324L191.646,199.717z M200.511,191.146l-0.014-0.014c-2.309-2.372-6.165-2.35-8.442,0.109
					c-0.915,0.987-1.461,2.274-1.537,3.619c-0.091,1.64,0.493,3.203,1.626,4.375l0.014,0.014c2.309,2.372,6.164,2.349,8.441-0.109
					c0.916-0.988,1.462-2.274,1.537-3.619C202.228,193.881,201.645,192.318,200.511,191.146z"/>
			</g>
		</g>
		<g>
			<g>
				<path fill="#0086FF" d="M192.393,197.989c0.803-2.303,2.993-3.955,5.569-3.955c0.718,0,1.408,0.129,2.045,0.365
					c0.942-0.639,2.081-1.014,3.305-1.014c2.836,0,5.203,2.001,5.769,4.668c2.667,0.564,4.669,2.933,4.669,5.768
					c0,3.257-2.64,5.896-5.896,5.896h-14.595c-3.256,0-5.896-2.641-5.896-5.896C187.363,200.859,189.547,198.408,192.393,197.989"/>
			</g>
			<g>
				<path fill="#FFFFFF" d="M193.909,199.819c0.059-2.188,1.85-3.943,4.053-3.943c0.859,0,1.656,0.267,2.311,0.723
					c0.744-0.841,1.831-1.372,3.04-1.372c2.239,0,4.055,1.815,4.055,4.054c0,0.176-0.012,0.349-0.033,0.52
					c0.171-0.021,0.344-0.033,0.52-0.033c2.239,0,4.054,1.815,4.054,4.053s-1.814,4.054-4.054,4.054h-14.595
					c-2.238,0-4.054-1.815-4.054-4.054s1.815-4.053,4.054-4.053C193.48,199.768,193.698,199.785,193.909,199.819"/>
			</g>
		</g>
	</g>
	<g>
		<g>
			<g>
				<path fill="#FFFFFF" d="M198.862,204.21c-0.295,0-0.583,0.029-0.862,0.085c-0.981-0.948-2.317-1.532-3.79-1.532
					c-1.756,0-3.318,0.83-4.316,2.119c-1.623,0.076-2.914,1.415-2.914,3.056c0,1.501,1.081,2.749,2.506,3.01
					c0.944,1.63,2.706,2.726,4.725,2.726c1.163,0,2.241-0.364,3.126-0.984c0.476,0.177,0.989,0.273,1.526,0.273
					c2.417,0,4.377-1.959,4.377-4.376S201.279,204.21,198.862,204.21z"/>
			</g>
			<g>
				<path fill="#0086FF" d="M194.21,214.345c-2.08,0-4.026-1.067-5.149-2.806c-1.612-0.436-2.753-1.903-2.753-3.602
					c0-1.891,1.401-3.46,3.244-3.699c1.167-1.369,2.849-2.147,4.658-2.147c1.482,0,2.89,0.526,4.003,1.489
					c0.215-0.028,0.432-0.042,0.649-0.042c2.783,0,5.048,2.265,5.048,5.049c0,2.782-2.265,5.048-5.048,5.048
					c-0.487,0-0.966-0.069-1.428-0.206C196.466,214.029,195.359,214.345,194.21,214.345z M194.21,203.435
					c-1.491,0-2.871,0.678-3.785,1.858l-0.19,0.245l-0.31,0.015c-1.275,0.06-2.274,1.107-2.274,2.385
					c0,1.154,0.822,2.143,1.955,2.35l0.305,0.056l0.155,0.268c0.854,1.476,2.441,2.392,4.143,2.392c0.988,0,1.936-0.299,2.741-0.863
					l0.289-0.203l0.331,0.124c0.413,0.153,0.847,0.23,1.292,0.23c2.043,0,3.704-1.661,3.704-3.704s-1.661-3.704-3.704-3.704
					c-0.245,0-0.491,0.023-0.73,0.071l-0.345,0.069l-0.253-0.244C196.637,203.911,195.457,203.435,194.21,203.435z"/>
			</g>
		</g>
	</g>
</g>
</svg>
