<?xml version="1.0" encoding="utf-8"?>
<!-- Generator: Adobe Illustrator 16.0.4, SVG Export Plug-In . SVG Version: 6.00 Build 0)  -->
<!DOCTYPE svg PUBLIC "-//W3C//DTD SVG 1.1//EN" "http://www.w3.org/Graphics/SVG/1.1/DTD/svg11.dtd">
<svg version="1.1" id="ico-002-Intervalos-nubosos" xmlns="http://www.w3.org/2000/svg" xmlns:xlink="http://www.w3.org/1999/xlink"
	 x="0px" y="0px" width="30px" height="30px" viewBox="185 185 30 30" enable-background="new 185 185 30 30" xml:space="preserve">
<g id="svg002">
	<g>
		<g>
			<circle fill="#FFFFFF" cx="196.275" cy="197.43" r="7.607"/>
		</g>
		<g>
			<path fill="#FF6700" d="M204.746,203.194l-0.604-3.723c-0.018-0.109,0.009-0.22,0.073-0.31l2.205-3.06
				c0.134-0.187,0.092-0.446-0.095-0.58l-3.061-2.205c-0.089-0.064-0.149-0.162-0.167-0.271l-0.604-3.723
				c-0.037-0.227-0.25-0.38-0.477-0.344l-3.724,0.605c-0.108,0.018-0.22-0.009-0.31-0.073l-3.06-2.205
				c-0.187-0.134-0.446-0.092-0.58,0.094l-2.205,3.061c-0.064,0.089-0.162,0.149-0.271,0.167l-3.724,0.604
				c-0.227,0.037-0.38,0.25-0.344,0.477l0.605,3.723c0.018,0.109-0.009,0.22-0.073,0.31l-2.205,3.06
				c-0.134,0.187-0.092,0.446,0.094,0.581l3.061,2.204c0.089,0.064,0.15,0.162,0.167,0.271l0.604,3.723
				c0.037,0.228,0.25,0.381,0.477,0.344l3.723-0.605c0.108-0.018,0.22,0.009,0.31,0.073l3.061,2.205
				c0.186,0.135,0.446,0.092,0.58-0.094l2.204-3.061c0.064-0.09,0.162-0.149,0.271-0.167l3.725-0.604
				C204.629,203.634,204.783,203.421,204.746,203.194z M191.017,202.915c-3.158-3.043-3.09-8.109,0.149-11.067
				c2.933-2.678,7.506-2.617,10.365,0.14c3.158,3.044,3.09,8.11-0.149,11.068C198.449,205.733,193.876,205.672,191.017,202.915z"/>
			<path fill="#FFF200" d="M200.518,193.348l-0.014-0.014c-2.343-2.406-6.254-2.384-8.565,0.111
				c-0.929,1.002-1.483,2.308-1.559,3.671c-0.092,1.664,0.5,3.25,1.65,4.438l0.014,0.014c2.342,2.407,6.254,2.385,8.565-0.109
				c0.928-1.003,1.482-2.308,1.559-3.672C202.26,196.124,201.668,194.538,200.518,193.348z"/>
			<path fill="#FF681D" d="M191.524,202.044c-1.343-1.39-2.006-3.261-1.829-5.211c0.123-1.348,0.665-2.633,1.544-3.662
				c2.559-2.993,7.084-3.085,9.768-0.328l0.016,0.016c1.343,1.389,2.007,3.261,1.829,5.211c-0.123,1.348-0.666,2.633-1.545,3.661
				c-2.559,2.993-7.084,3.086-9.768,0.329L191.524,202.044z M200.518,193.348l-0.014-0.014c-2.343-2.406-6.254-2.384-8.565,0.111
				c-0.929,1.002-1.483,2.308-1.559,3.671c-0.093,1.663,0.5,3.25,1.65,4.438l0.014,0.014c2.342,2.407,6.254,2.385,8.564-0.109
				c0.929-1.002,1.483-2.308,1.56-3.672C202.26,196.124,201.668,194.538,200.518,193.348z"/>
		</g>
	</g>
	<g>
		<g>
			<path fill="#0086FF" d="M192.282,200.292c0.814-2.336,3.036-4.012,5.649-4.012c0.729,0,1.429,0.131,2.075,0.37
				c0.956-0.648,2.111-1.029,3.354-1.029c2.877,0,5.279,2.03,5.853,4.736c2.706,0.573,4.737,2.975,4.737,5.851
				c0,3.304-2.679,5.982-5.982,5.982H193.16c-3.303,0-5.981-2.679-5.981-5.982C187.179,203.203,189.396,200.717,192.282,200.292"/>
		</g>
		<g>
			<path fill="#FFFFFF" d="M193.82,202.148c0.06-2.22,1.877-4,4.111-4c0.872,0,1.681,0.271,2.346,0.733
				c0.754-0.854,1.856-1.392,3.084-1.392c2.271,0,4.113,1.841,4.113,4.113c0,0.179-0.013,0.354-0.034,0.526
				c0.173-0.021,0.349-0.033,0.527-0.033c2.271,0,4.112,1.842,4.112,4.112c0,2.271-1.841,4.113-4.112,4.113h-14.807
				c-2.271,0-4.113-1.842-4.113-4.113c0-2.271,1.841-4.112,4.113-4.112C193.385,202.096,193.606,202.114,193.82,202.148"/>
		</g>
	</g>
</g>
</svg>
