<?xml version="1.0" encoding="utf-8"?>
<!-- Generator: Adobe Illustrator 16.0.4, SVG Export Plug-In . SVG Version: 6.00 Build 0)  -->
<!DOCTYPE svg PUBLIC "-//W3C//DTD SVG 1.1//EN" "http://www.w3.org/Graphics/SVG/1.1/DTD/svg11.dtd">
<svg version="1.1" id="Layer_1" xmlns="http://www.w3.org/2000/svg" xmlns:xlink="http://www.w3.org/1999/xlink" x="0px" y="0px"
	 width="30px" height="30px" viewBox="185 185.005 30 30" enable-background="new 185 185.005 30 30" xml:space="preserve">
<g>
	<g>
		<defs>
			<rect id="SVGID_1_" x="186.5" y="186.505" width="27" height="26.999"/>
		</defs>
		<clipPath id="SVGID_2_">
			<use xlink:href="#SVGID_1_"  overflow="visible"/>
		</clipPath>
		<path clip-path="url(#SVGID_2_)" fill="#FFFFFF" d="M210.047,199.944c0.018,5.547-4.465,10.059-10.013,10.078
			c-5.547,0.018-10.06-4.465-10.078-10.012c-0.018-5.548,4.465-10.06,10.013-10.078
			C205.517,189.913,210.029,194.396,210.047,199.944"/>
	</g>
	<g>
		<defs>
			<rect id="SVGID_3_" x="186.5" y="186.505" width="27" height="26.999"/>
		</defs>
		<clipPath id="SVGID_4_">
			<use xlink:href="#SVGID_3_"  overflow="visible"/>
		</clipPath>
		<path clip-path="url(#SVGID_4_)" fill="#FF6700" d="M211.188,207.587l-0.8-4.916c-0.023-0.144,0.013-0.291,0.098-0.408
			l2.911-4.042c0.178-0.245,0.121-0.588-0.124-0.766l-4.041-2.911c-0.117-0.085-0.197-0.213-0.221-0.357l-0.798-4.916
			c-0.049-0.3-0.331-0.503-0.63-0.454l-4.917,0.8c-0.144,0.024-0.291-0.011-0.409-0.096l-4.041-2.912
			c-0.245-0.177-0.588-0.122-0.766,0.125l-2.911,4.041c-0.085,0.118-0.214,0.198-0.358,0.22l-4.915,0.799
			c-0.3,0.049-0.503,0.331-0.454,0.63l0.798,4.917c0.024,0.144-0.012,0.291-0.096,0.409l-2.911,4.039
			c-0.177,0.245-0.122,0.588,0.125,0.766l4.041,2.911c0.118,0.085,0.198,0.213,0.22,0.356l0.798,4.917
			c0.049,0.3,0.331,0.502,0.63,0.454l4.915-0.801c0.144-0.023,0.291,0.012,0.409,0.097l4.042,2.912
			c0.246,0.177,0.589,0.121,0.766-0.124l2.91-4.041c0.086-0.117,0.214-0.197,0.357-0.221l4.917-0.797
			C211.033,208.168,211.236,207.887,211.188,207.587 M193.058,207.22c-4.17-4.02-4.08-10.709,0.197-14.614
			c3.873-3.537,9.911-3.455,13.687,0.185c4.169,4.019,4.079,10.708-0.197,14.613C202.872,210.939,196.834,210.858,193.058,207.22"/>
	</g>
	<g>
		<defs>
			<rect id="SVGID_5_" x="186.5" y="186.505" width="27" height="26.999"/>
		</defs>
		<clipPath id="SVGID_6_">
			<use xlink:href="#SVGID_5_"  overflow="visible"/>
		</clipPath>
		<path clip-path="url(#SVGID_6_)" fill="#FFF200" d="M205.604,194.587l-0.018-0.019c-3.094-3.177-8.259-3.147-11.311,0.146
			c-1.226,1.323-1.958,3.047-2.058,4.848c-0.122,2.196,0.66,4.29,2.179,5.861l0.018,0.019c3.093,3.177,8.257,3.147,11.309-0.146
			c1.226-1.322,1.958-3.047,2.059-4.848C207.904,198.251,207.122,196.157,205.604,194.587"/>
	</g>
	<g>
		<defs>
			<rect id="SVGID_7_" x="186.5" y="186.505" width="27" height="26.999"/>
		</defs>
		<clipPath id="SVGID_8_">
			<use xlink:href="#SVGID_7_"  overflow="visible"/>
		</clipPath>
		<path clip-path="url(#SVGID_8_)" fill="#FF681D" d="M193.729,206.068c-1.774-1.833-2.649-4.307-2.415-6.88
			c0.162-1.78,0.878-3.477,2.04-4.834c3.378-3.953,9.353-4.074,12.897-0.434l0.021,0.021c1.773,1.834,2.649,4.306,2.415,6.88
			c-0.162,1.78-0.879,3.477-2.04,4.835c-3.378,3.952-9.354,4.074-12.897,0.433L193.729,206.068z M205.604,194.587l-0.018-0.019
			c-3.094-3.177-8.259-3.147-11.311,0.146c-1.226,1.323-1.958,3.047-2.058,4.848c-0.122,2.196,0.66,4.29,2.179,5.861l0.018,0.019
			c3.093,3.177,8.257,3.147,11.309-0.146c1.226-1.323,1.958-3.048,2.059-4.848C207.904,198.251,207.122,196.157,205.604,194.587"/>
	</g>
</g>
</svg>
