<svg xmlns="http://www.w3.org/2000/svg" xmlns:svgjs="http://svgjs.com/svgjs" xmlns:xlink="http://www.w3.org/1999/xlink" width="288" height="288"><svg xmlns="http://www.w3.org/2000/svg" width="288" height="288" viewBox="0 0 32 32"><path fill="#04aeef" fill-rule="evenodd" d="M16.8656143,7.01617419 L16.9646092,7.07324943 L17.758638,7.59425089 L17.808802,7.6291575 C19.3913729,8.74721582 20.0600673,10.6770224 19.6491607,12.4550713 C19.6655369,12.5597954 19.6649902,12.6691885 19.6455178,12.7796221 C19.3681234,14.3528038 19.9247818,15.51789 21.4313303,16.4520409 C22.5217979,17.1281966 21.586081,18.7368913 20.4947864,18.2159184 L20.3887544,18.1587506 L17.335094,16.3215732 L16.1092402,18.0578419 L18.981343,19.6925709 C19.5222591,20.0005265 19.6462071,20.7134164 19.2691426,21.1845096 L19.1870246,21.2753127 L16.0289443,24.3740986 L21.1726589,27.2255718 C22.3781266,27.8937735 23.7996637,28.0557371 25.1245481,27.6758327 C25.6554382,27.5236024 26.2092168,27.8305668 26.3614471,28.361457 C26.5136774,28.8923472 26.2067129,29.4461257 25.6758228,29.5983561 C23.9376203,30.0967776 22.0792868,29.9217033 20.4690518,29.1150875 L20.2030396,28.9748112 L5.51537342,20.8333049 C5.03233429,20.5655519 4.85781037,19.9569147 5.12556333,19.4738755 C5.37419108,19.0253392 5.91674456,18.8428185 6.37973186,19.0334106 L6.48499266,19.0840654 L14.2039994,23.3618215 L16.8405018,20.7751055 L12.4855202,18.2957693 L12.3483254,18.213352 L12.3483254,18.213352 L12.2151368,18.1246063 C10.7215721,17.0781447 10.3201195,15.053965 11.2697452,13.5232746 L11.3766726,13.3612274 L11.6848012,12.9207439 L5.94829947,9.46917756 C5.47508537,9.18442002 5.32231115,8.56996259 5.60706869,8.09674849 C5.87148641,7.6573354 6.42018617,7.49421995 6.87610448,7.70115248 L6.97949776,7.75551771 L12.8354369,11.2786019 L15.5980837,7.33620928 C15.885776,6.92559983 16.4278976,6.79590471 16.8656143,7.01617419 Z M13.4023498,13.9547012 L13.0146384,14.5088633 C12.5646249,15.151146 12.7204899,16.0366271 13.3627726,16.4866406 L13.4180732,16.5234882 L14.3633701,17.0635695 L15.6175454,15.2876159 L13.4023498,13.9547012 Z M16.6780915,9.28027087 L14.5531592,12.3115744 L16.7747275,13.648659 L17.285263,12.9281865 C18.0898509,11.7893215 17.8618888,10.2313062 16.7927865,9.36697884 L16.6780915,9.28027087 Z M22.0292456,2.00477184 C23.9154709,1.90591896 25.5246947,3.35487062 25.6235476,5.24109595 C25.7224005,7.12732128 24.2734488,8.73654513 22.3872235,8.83539801 C20.5009982,8.93425089 18.8917743,7.48529923 18.7929214,5.5990739 C18.6940686,3.71284857 20.1430202,2.10362472 22.0292456,2.00477184 Z M23.6262885,5.34576786 C23.5852444,4.56259826 22.9170871,3.96098673 22.1339175,4.00203091 C21.3507479,4.04307509 20.7491363,4.71123238 20.7901805,5.49440199 C20.8312247,6.27757159 21.499382,6.87918312 22.2825516,6.83813894 C23.0657212,6.79709476 23.6673327,6.12893747 23.6262885,5.34576786 Z" class="color0E1B30 svgShape"/></svg></svg>