<?xml version="1.0" encoding="UTF-8"?>
<svg width="32px" height="33px" viewBox="0 0 32 33" version="1.1" xmlns="http://www.w3.org/2000/svg" xmlns:xlink="http://www.w3.org/1999/xlink">
    <title>linkedin copy</title>
    <g id="02-WE-CAMBIO-COLOR-BOTONES-ICO" stroke="none" stroke-width="1" fill="none" fill-rule="evenodd">
        <g id="02.0A-HOME-DESKTOP" transform="translate(-1069.000000, -4596.000000)">
            <g id="Group-16" transform="translate(0.000000, 4532.000000)">
                <g id="Group-92" transform="translate(877.000000, 28.723404)">
                    <g id="Group-68" transform="translate(0.000000, 36.000000)">
                        <g id="Group-65" transform="translate(192.000000, 0.000000)">
                            <circle id="Oval" fill="#FFFFFF" fill-rule="nonzero" cx="15.8861593" cy="15.8861593" r="15.8861593"></circle>
                            <path d="M16,5.72368744 C10.5,5.72368744 6,10.2236874 6,15.7236874 C6,21.2236874 10.5,25.7236874 16,25.7236874 C21.5,25.7236874 26,21.2236874 26,15.7236874 C26,10.2236874 21.55,5.72368744 16,5.72368744 M20.6,20.1736874 C20.4,20.4736874 20.05,20.5736874 19.75,20.3736874 C17.4,18.9236874 14.45,18.6236874 10.95,19.4236874 C10.6,19.5236874 10.3,19.2736874 10.2,18.9736874 C10.1,18.6236874 10.35,18.3236874 10.65,18.2236874 C14.45,17.3736874 17.75,17.7236874 20.35,19.3236874 C20.7,19.4736874 20.75,19.8736874 20.6,20.1736874 M21.8,17.4236874 C21.55,17.7736874 21.1,17.9236874 20.75,17.6736874 C18.05,16.0236874 13.95,15.5236874 10.8,16.5236874 C10.4,16.6236874 9.95,16.4236874 9.85,16.0236874 C9.75,15.6236874 9.95,15.1736874 10.35,15.0736874 C14,13.9736874 18.5,14.5236874 21.6,16.4236874 C21.9,16.5736874 22.05,17.0736874 21.8,17.4236874 M21.9,14.6236874 C18.7,12.7236874 13.35,12.5236874 10.3,13.4736874 C9.8,13.6236874 9.3,13.3236874 9.15,12.8736874 C9,12.3736874 9.3,11.8736874 9.75,11.7236874 C13.3,10.6736874 19.15,10.8736874 22.85,13.0736874 C23.3,13.3236874 23.45,13.9236874 23.2,14.3736874 C22.95,14.7236874 22.35,14.8736874 21.9,14.6236874" id="Spotify" fill="#00D95F"></path>
                        </g>
                    </g>
                </g>
            </g>
        </g>
    </g>
</svg>