<?xml version="1.0" encoding="UTF-8"?>
<svg width="32px" height="32px" viewBox="0 0 32 32" version="1.1" xmlns="http://www.w3.org/2000/svg" xmlns:xlink="http://www.w3.org/1999/xlink">
    <title>00 ic/32 main/line/close</title>
    <g id="00-ic/32-main/line/close" stroke="none" stroke-width="1" fill="none" fill-rule="evenodd">
        <path d="M8.61289944,7.20970461 L8.70710678,7.29289322 L16,14.585 L23.2928932,7.29289322 C23.6834175,6.90236893 24.3165825,6.90236893 24.7071068,7.29289322 C25.0675907,7.65337718 25.0953203,8.22060824 24.7902954,8.61289944 L24.7071068,8.70710678 L17.415,16 L24.7071068,23.2928932 C25.0976311,23.6834175 25.0976311,24.3165825 24.7071068,24.7071068 C24.3466228,25.0675907 23.7793918,25.0953203 23.3871006,24.7902954 L23.2928932,24.7071068 L16,17.415 L8.70710678,24.7071068 C8.31658249,25.0976311 7.68341751,25.0976311 7.29289322,24.7071068 C6.93240926,24.3466228 6.90467972,23.7793918 7.20970461,23.3871006 L7.29289322,23.2928932 L14.585,16 L7.29289322,8.70710678 C6.90236893,8.31658249 6.90236893,7.68341751 7.29289322,7.29289322 C7.65337718,6.93240926 8.22060824,6.90467972 8.61289944,7.20970461 Z" id="Combined-Shape" fill="#0E1B30"></path>
    </g>
</svg>