<svg xmlns="http://www.w3.org/2000/svg" xmlns:svgjs="http://svgjs.com/svgjs" xmlns:xlink="http://www.w3.org/1999/xlink" width="288" height="288"><svg xmlns="http://www.w3.org/2000/svg" width="288" height="288" viewBox="0 0 32 32"><path fill="#04aeef" fill-rule="evenodd" d="M15.9999973,1.66666667 C16.5128331,1.66666667 16.9355045,2.05270686 16.9932696,2.55004554 L16.9999973,2.66666667 L16.999,5.048 L18.2199541,4.43865582 C18.7140708,4.19194326 19.3146316,4.39250399 19.5613442,4.88662074 C19.7904344,5.34544343 19.6338655,5.89604698 19.2147122,6.16989557 L19.1133793,6.22801085 L17,7.283 L17,10.753 L20.053,12.504 L23.047,10.775 L22.9060675,8.41718085 C22.8729772,7.8658883 23.2930632,7.39215241 23.8443557,7.35906212 C24.3562702,7.32833543 24.8013119,7.68835762 24.8887714,8.18134181 L24.9024744,8.29735033 L24.984,9.658 L27.0471044,8.46725079 C27.5254286,8.19116308 28.1370002,8.35510814 28.4130879,8.83343232 C28.6694551,9.27759049 28.5464062,9.83664062 28.1445467,10.1352901 L28.0469064,10.1994159 L25.982,11.39 L27.121788,12.1414637 C27.5827271,12.4456899 27.7097679,13.065979 27.4055417,13.5269181 C27.1230459,13.9549329 26.5680266,14.0950458 26.1211257,13.8692976 L26.0200873,13.8106718 L24.047,12.507 L21.043,14.242 L21.053,17.763 L24.047,19.491 L26.0199338,18.1894296 C26.4808169,17.8851185 27.1011293,18.0120453 27.4054403,18.4729284 C27.6880149,18.9008913 27.5987568,19.4663212 27.2155552,19.7885619 L27.1219415,19.8584349 L25.984,20.609 L28.0470939,21.8006923 C28.5253583,22.0768836 28.6891709,22.6884907 28.4129797,23.1667551 C28.1565164,23.6108578 27.6108425,23.7838261 27.1512723,23.5851358 L27.0469169,23.532641 L24.984,22.341 L24.9024818,23.7025269 C24.8694593,24.2538235 24.3957751,24.6739677 23.8444785,24.6409452 C23.3325602,24.6102815 22.9337274,24.1996595 22.9058028,23.6997567 L22.9060601,23.582942 L23.047,21.223 L20.043,19.489 L17,21.258 L17,24.715 L19.1138795,25.7722391 C19.6078582,26.019228 19.8080831,26.6199008 19.5610942,27.1138795 C19.3317474,27.572574 18.7974384,27.7779808 18.3267717,27.6072312 L18.2194538,27.5610942 L16.999,26.951 L16.9999973,29.3333333 C16.9999973,29.8856181 16.5522821,30.3333333 15.9999973,30.3333333 C15.4871615,30.3333333 15.0644901,29.9472931 15.006725,29.4499545 L14.9999973,29.3333333 L14.999,26.95 L13.7808811,27.5609267 C13.286995,27.8081005 12.6862472,27.6081006 12.4390733,27.1142145 C12.2095548,26.6556059 12.3656094,26.1048564 12.7845069,25.8306165 L12.8857855,25.7724067 L15,24.715 L15,21.246 L11.946,19.495 L8.952,21.223 L9.09393045,23.5827852 C9.12703949,24.1340766 8.70696967,24.6078268 8.15567825,24.6409358 C7.64376478,24.6716799 7.19871086,24.3116729 7.11123457,23.8186917 L7.0975276,23.7026836 L7.015,22.341 L4.95296599,23.5327086 C4.47466424,23.8088352 3.86307925,23.6449398 3.58695268,23.166638 C3.33054945,22.7225007 3.45355288,22.1634406 3.85538813,21.8647585 L3.95302325,21.8006247 L6.016,20.609 L4.87821183,19.8585362 C4.41727282,19.5543098 4.2902321,18.9340207 4.59445844,18.4730817 C4.87695434,18.0450669 5.43197371,17.9049542 5.87887447,18.1307025 L5.97991289,18.1893283 L7.952,19.491 L10.956,17.757 L10.946,14.236 L7.952,12.508 L5.9802236,13.8104665 C5.51939789,14.1148644 4.89906155,13.9880547 4.5946636,13.527229 C4.31200836,13.0993194 4.40115977,12.5338726 4.78430066,12.2115596 L4.87790112,12.141669 L6.015,11.389 L3.95321082,10.1994835 C3.47484928,9.92346056 3.31082145,9.31191108 3.58684442,8.83354954 C3.84315146,8.38935668 4.38876452,8.21619646 4.84840459,8.41472502 L4.95277841,8.46718314 L7.014,9.657 L7.0975576,8.29681895 C7.12617224,7.82429764 7.47847516,7.44834536 7.92570767,7.37159672 L8.03936112,7.35876023 L8.15617566,7.35909416 C8.66807375,7.39009336 9.06663735,7.80097671 9.09423438,8.30089768 L9.09390046,8.41771223 L8.952,10.775 L11.957,12.51 L15,10.741 L15,7.285 L12.8861197,6.22776052 C12.3921412,5.98077128 12.1919169,5.38009824 12.4389061,4.88611974 C12.6682533,4.42742542 13.2025625,4.22201912 13.6732291,4.39276906 L13.7805469,4.43890614 L14.999,5.048 L14.9999973,2.66666667 C14.9999973,2.11438192 15.4477126,1.66666667 15.9999973,1.66666667 Z M15.989,12.479 L12.946,14.249 L12.956,17.768 L16.01,19.52 L19.053,17.75 L19.043,14.231 L15.989,12.479 Z" class="color0E1B30 svgShape"/></svg></svg>