<svg width="19" height="19" viewBox="0 0 19 19" xmlns="http://www.w3.org/2000/svg">
    <g fill="#8A93A4" fill-rule="evenodd">
        <path d="M11.943 2.375c.754 0 1.371.586 1.422 1.327l.003.098v.204H15.2c.754 0 1.372.586 1.422 1.327l.003.098v8.957a2.24 2.24 0 0 1-2.12 2.236l-.12.003H5.43a3.054 3.054 0 0 1-3.051-2.921l-.003-.133V3.8c0-.754.586-1.372 1.327-1.422l.098-.003h8.143zm0 1.221H3.8c-.098 0-.18.07-.2.163l-.004.041v9.771c0 .976.763 1.774 1.725 1.83l.108.003h6.962l-.01-.02a2.227 2.227 0 0 1-.231-.88l-.004-.118V3.8c0-.098-.07-.18-.162-.2l-.041-.004zM15.2 5.225h-1.832v9.16a1.018 1.018 0 0 0 2.032.089l.004-.088V5.429c0-.099-.07-.18-.163-.2l-.041-.004zM6.22 6.791l.05.024 3.888 2.18c.325.182.343.64.054.853l-.054.035-3.91 2.191-.03.015-.055.018-.055.013-.055.005a.49.49 0 0 1-.055 0l-.054-.006-.03-.006-.053-.017-.022-.008-.05-.024-.027-.017-.045-.032-.04-.037-.037-.042-.032-.045-.027-.049-.014-.032-.018-.054-.012-.056-.006-.056V7.259a.5.5 0 0 1 .688-.468z" fill-rule="nonzero"/>
        <path d="M11.943 2.375c.754 0 1.371.586 1.422 1.327l.003.098v.204H15.2c.754 0 1.372.586 1.422 1.327l.003.098v8.957a2.24 2.24 0 0 1-2.12 2.236l-.12.003H5.43a3.054 3.054 0 0 1-3.051-2.921l-.003-.133V3.8c0-.754.586-1.372 1.327-1.422l.098-.003h8.143zm0 1.221H3.8c-.098 0-.18.07-.2.163l-.004.041v9.771c0 .976.763 1.774 1.725 1.83l.108.003h6.962l-.01-.02a2.227 2.227 0 0 1-.231-.88l-.004-.118V3.8c0-.098-.07-.18-.162-.2l-.041-.004zM15.2 5.225h-1.832v9.16a1.018 1.018 0 0 0 2.032.089l.004-.088V5.429c0-.099-.07-.18-.163-.2l-.041-.004zM6.22 6.791l.05.024 3.888 2.18c.325.182.343.64.054.853l-.054.035-3.91 2.191-.03.015-.055.018-.055.013-.055.005a.49.49 0 0 1-.055 0l-.054-.006-.03-.006-.053-.017-.022-.008-.05-.024-.027-.017-.045-.032-.04-.037-.037-.042-.032-.045-.027-.049-.014-.032-.018-.054-.012-.056-.006-.056V7.259a.5.5 0 0 1 .688-.468z"/>
    </g>
</svg>
