<svg xmlns="http://www.w3.org/2000/svg" xmlns:svgjs="http://svgjs.com/svgjs" xmlns:xlink="http://www.w3.org/1999/xlink" width="288" height="288"><svg xmlns="http://www.w3.org/2000/svg" width="288" height="288" viewBox="0 0 32 32"><path fill="#e53935" fill-rule="evenodd" d="M16,3 C23.1797017,3 29,8.82029825 29,16 C29,23.1797017 23.1797017,29 16,29 C8.82029825,29 3,23.1797017 3,16 C3,8.82029825 8.82029825,3 16,3 Z M16,5 C9.92486775,5 5,9.92486775 5,16 C5,22.0751322 9.92486775,27 16,27 C22.0751322,27 27,22.0751322 27,16 C27,9.92486775 22.0751322,5 16,5 Z M13.8447363,12.4737141 L13.9462328,12.5430379 L14.0404401,12.6262266 L16,14.586 L17.9595599,12.6262266 C18.3500842,12.2357023 18.9832492,12.2357023 19.3737734,12.6262266 C19.7342574,12.9867105 19.7619869,13.5539416 19.4569621,13.9462328 L19.3737734,14.0404401 L17.414,16 L19.3737734,17.9595599 C19.7642977,18.3500842 19.7642977,18.9832492 19.3737734,19.3737734 C19.0132895,19.7342574 18.4460584,19.7619869 18.0537672,19.4569621 L17.9595599,19.3737734 L16,17.414 L14.0404401,19.3737734 C13.6499158,19.7642977 13.0167508,19.7642977 12.6262266,19.3737734 C12.2657426,19.0132895 12.2380131,18.4460584 12.5430379,18.0537672 L12.6262266,17.9595599 L14.586,16 L12.6262266,14.0404401 C12.2357023,13.6499158 12.2357023,13.0167508 12.6262266,12.6262266 C12.9566702,12.2957829 13.4608388,12.2449454 13.8447363,12.4737141 Z" class="color0E1B30 svgShape"/></svg></svg>