<svg xmlns="http://www.w3.org/2000/svg" xmlns:svgjs="http://svgjs.com/svgjs" xmlns:xlink="http://www.w3.org/1999/xlink" width="288" height="288"><svg xmlns="http://www.w3.org/2000/svg" width="288" height="288" viewBox="0 0 32 32"><path fill="#34b37e" fill-rule="evenodd" d="M16,3 C23.1797017,3 29,8.82029825 29,16 C29,23.1797017 23.1797017,29 16,29 C8.82029825,29 3,23.1797017 3,16 C3,8.82029825 8.82029825,3 16,3 Z M16,5 C9.92486775,5 5,9.92486775 5,16 C5,22.0751322 9.92486775,27 16,27 C22.0751322,27 27,22.0751322 27,16 C27,9.92486775 22.0751322,5 16,5 Z M20.7071068,12.6262266 C21.0675907,12.9867105 21.0953203,13.5539416 20.7902954,13.9462328 L20.7071068,14.0404401 L15.3737734,19.3737734 C15.0132895,19.7342574 14.4460584,19.7619869 14.0537672,19.4569621 L13.9595599,19.3737734 L11.2928932,16.7071068 C10.9023689,16.3165825 10.9023689,15.6834175 11.2928932,15.2928932 C11.6533772,14.9324093 12.2206082,14.9046797 12.6128994,15.2097046 L12.7071068,15.2928932 L14.666,17.252 L19.2928932,12.6262266 C19.6834175,12.2357023 20.3165825,12.2357023 20.7071068,12.6262266 Z" class="color0E1B30 svgShape"/></svg></svg>