<svg width="32" height="32" viewBox="0 0 32 32" fill="none" xmlns="http://www.w3.org/2000/svg">
<g id="00 ic/32 main/line/menu">
<path id="Combined Shape" fill-rule="evenodd" clip-rule="evenodd" d="M26.6666 6.66675C27.2189 6.66675 27.6666 7.11446 27.6666 7.66675C27.6666 8.17958 27.2806 8.60226 26.7833 8.66002L26.6666 8.66675H5.33331C4.78103 8.66675 4.33331 8.21903 4.33331 7.66675C4.33331 7.15391 4.71935 6.73124 5.21669 6.67348L5.33331 6.66675H26.6666ZM26.6666 14.6667C27.2189 14.6667 27.6666 15.1145 27.6666 15.6667C27.6666 16.1796 27.2806 16.6023 26.7833 16.66L26.6666 16.6667H5.33331C4.78103 16.6667 4.33331 16.219 4.33331 15.6667C4.33331 15.1539 4.71935 14.7312 5.21669 14.6735L5.33331 14.6667H26.6666ZM27.6666 24.3334C27.6666 23.7811 27.2189 23.3334 26.6666 23.3334H5.33331L5.21669 23.3401C4.71935 23.3979 4.33331 23.8206 4.33331 24.3334C4.33331 24.8857 4.78103 25.3334 5.33331 25.3334H26.6666L26.7833 25.3267C27.2806 25.2689 27.6666 24.8463 27.6666 24.3334Z" fill="white"/>
</g>
</svg>
