<?xml version="1.0" encoding="UTF-8"?>
<svg width="32px" height="33px" viewBox="0 0 32 33" version="1.1" xmlns="http://www.w3.org/2000/svg" xmlns:xlink="http://www.w3.org/1999/xlink">
    <title>linkedin</title>
    <g id="02-WE-CAMBIO-COLOR-BOTONES-ICO" stroke="none" stroke-width="1" fill="none" fill-rule="evenodd">
        <g id="02.0A-HOME-DESKTOP" transform="translate(-1021.000000, -4596.000000)" fill-rule="nonzero">
            <g id="Group-16" transform="translate(0.000000, 4532.000000)">
                <g id="Group-92" transform="translate(877.000000, 28.723404)">
                    <g id="Group-68" transform="translate(0.000000, 36.000000)">
                        <g id="linkedin" transform="translate(144.000000, 0.000283)">
                            <circle id="Oval" fill="#FFFFFF" cx="15.8861593" cy="15.8858761" r="15.8861593"></circle>
                            <path d="M25.3779823,17.164177 L25.3779823,23.7136991 L21.5807434,23.7136991 L21.5807434,17.603115 C21.5807434,16.0688142 21.0324956,15.0210265 19.6576283,15.0210265 C18.6084248,15.0210265 17.9851327,15.7264425 17.7098761,16.4094867 C17.6099115,16.6535929 17.5841416,16.9925664 17.5841416,17.3349381 L17.5841416,23.7134159 L13.7866195,23.7134159 C13.7866195,23.7134159 13.8375929,13.3641062 13.7866195,12.2928142 L17.5844248,12.2928142 L17.5844248,13.9112212 C17.5767788,13.9239646 17.5660177,13.9364248 17.5592212,13.9486018 L17.5844248,13.9486018 L17.5844248,13.9112212 C18.0890619,13.1347257 18.9890265,12.0246372 21.0067257,12.0246372 C23.5049912,12.0246372 25.3779823,13.6569204 25.3779823,17.164177 L25.3779823,17.164177 Z M9.8140885,6.78768142 C8.51511504,6.78768142 7.66527434,7.64035398 7.66527434,8.76063717 C7.66527434,9.85713274 8.49047788,10.7344425 9.76424779,10.7344425 L9.78888496,10.7344425 C11.1133451,10.7344425 11.9368496,9.85713274 11.9368496,8.76063717 C11.911646,7.64035398 11.1133451,6.78768142 9.8140885,6.78768142 L9.8140885,6.78768142 Z M7.89097345,23.7136991 L11.6870796,23.7136991 L11.6870796,12.2928142 L7.89097345,12.2928142 L7.89097345,23.7136991 Z" id="Shape" fill="#007AB9"></path>
                        </g>
                    </g>
                </g>
            </g>
        </g>
    </g>
</svg>