<?xml version="1.0" encoding="UTF-8"?>
<svg width="68px" height="68px" viewBox="0 0 68 68" version="1.1" xmlns="http://www.w3.org/2000/svg" xmlns:xlink="http://www.w3.org/1999/xlink">
    <title>Group</title>
    <defs>
        <path d="M32.2285714,0 C34.7690813,0 36.8486139,1.97367807 37.0174977,4.47136253 L37.0285713,4.80000001 L37.0278857,5.48571428 L43.1999999,5.48571428 C45.7405098,5.48571428 47.8200424,7.45939235 47.9889262,9.95707681 L48,10.2857143 L48,40.4571428 C48,44.488567 44.8373081,47.7813049 40.857736,47.9895446 L40.4571428,48 L10.2857143,48 C4.75456175,48 0.24311703,43.6341119 0.00950301256,38.1604586 L0,37.7142857 L0,4.80000001 C0,2.25949015 1.97367807,0.17995752 4.47136253,0.011073744 L4.80000001,0 L32.2285714,0 Z M32.2285714,4.11428571 L4.80000001,4.11428571 C4.46862914,4.11428571 4.19215729,4.34933623 4.12821699,4.66180465 L4.11428571,4.80000001 L4.11428571,37.7142857 C4.11428571,41.0009436 6.6834925,43.6875308 9.92309598,43.8752379 L10.2857143,43.8857143 L33.7364571,43.8843428 L33.7048756,43.8226423 C33.2551443,42.9220852 32.9802717,41.9189553 32.924741,40.857736 L32.9142856,40.4571428 L32.9142856,4.80000001 C32.9142856,4.46862914 32.6792352,4.19215729 32.3667667,4.12821699 L32.2285714,4.11428571 Z M43.1999999,9.59999999 L37.0278857,9.59999999 L37.0285713,40.4571428 C37.0285713,42.3506905 38.5635951,43.8857143 40.4571428,43.8857143 C42.2510302,43.8857143 43.7231397,42.5080198 43.8731293,40.7529731 L43.8857143,40.4571428 L43.8857143,10.2857143 C43.8857143,9.95434342 43.6506637,9.67787157 43.3381952,9.61393127 L43.1999999,9.59999999 Z M12.9490398,14.8741244 L13.1186052,14.9574736 L26.2171474,22.2999682 C27.3108983,22.9130792 27.3716622,24.4567235 26.3994392,25.1732271 L26.2171474,25.2907249 L13.0463855,32.6718401 L12.941644,32.7192985 L12.7599905,32.7827471 L12.5753567,32.8240687 L12.3894543,32.8437668 C12.3274655,32.8467849 12.2655506,32.8462829 12.2039949,32.8423449 L12.0206904,32.8203063 L11.9228236,32.8003003 L11.741513,32.7458499 L11.6673929,32.7163932 L11.5008234,32.6355257 L11.4076187,32.579552 L11.2575551,32.470267 L11.1204271,32.3452663 L10.9974948,32.2058309 L10.8900183,32.0532422 L10.7992574,31.8887814 L10.7525843,31.7822775 L10.6901857,31.5975675 L10.6495478,31.4098269 L10.6301757,31.2207964 L10.6285714,16.4528519 C10.6285714,15.2183123 11.8657424,14.4136079 12.9490398,14.8741244 Z" id="path-1"></path>
        <filter x="-31.2%" y="-31.2%" width="162.5%" height="162.5%" filterUnits="objectBoundingBox" id="filter-2">
            <feOffset dx="0" dy="0" in="SourceAlpha" result="shadowOffsetOuter1"></feOffset>
            <feGaussianBlur stdDeviation="5" in="shadowOffsetOuter1" result="shadowBlurOuter1"></feGaussianBlur>
            <feColorMatrix values="0 0 0 0 0.102142771   0 0 0 0 0.255681043   0 0 0 0 0.485988451  0 0 0 0.1 0" type="matrix" in="shadowBlurOuter1"></feColorMatrix>
        </filter>
    </defs>
    <g id="Categoría-editorial" stroke="none" stroke-width="1" fill="none" fill-rule="evenodd">
        <g id="categoria-Paginación-v3" transform="translate(-566.000000, -1586.000000)">
            <g id="Group-17" transform="translate(208.000000, 1500.000000)">
                <g id="Rectangle-Copy-45" transform="translate(352.000000, 0.000000)">
                    <g id="Combined-Shape" transform="translate(16.000000, 96.000000)">
                        <use fill="#0E1B30" fill-opacity="1" filter="url(#filter-2)" xlink:href="#path-1"></use>
                        <use fill="#FFFFFF" fill-rule="evenodd" xlink:href="#path-1"></use>
                    </g>
                </g>
            </g>
        </g>
    </g>
</svg>