<?xml version="1.0" encoding="UTF-8"?>
<svg width="32px" height="32px" viewBox="0 0 32 32" version="1.1" xmlns="http://www.w3.org/2000/svg" xmlns:xlink="http://www.w3.org/1999/xlink">
    <title>00 ic/32 main/line/search</title>
    <g id="00-ic/32-main/line/search" stroke="none" stroke-width="1" fill="none" fill-rule="evenodd">
        <path d="M13.3333333,3 C19.0402757,3 23.6666667,7.62639092 23.6666667,13.3333333 C23.6666667,15.8264894 22.7837204,18.1134223 21.3134637,19.8984962 L28.7071068,27.2928932 C29.0976311,27.6834175 29.0976311,28.3165825 28.7071068,28.7071068 C28.3466228,29.0675907 27.7793918,29.0953203 27.3871006,28.7902954 L27.2928932,28.7071068 L19.8984962,21.3134637 C18.1134223,22.7837204 15.8264894,23.6666667 13.3333333,23.6666667 C7.62639092,23.6666667 3,19.0402757 3,13.3333333 C3,7.62639092 7.62639092,3 13.3333333,3 Z M13.3333333,5 C8.73096042,5 5,8.73096042 5,13.3333333 C5,17.9357062 8.73096042,21.6666667 13.3333333,21.6666667 C17.9357062,21.6666667 21.6666667,17.9357062 21.6666667,13.3333333 C21.6666667,8.73096042 17.9357062,5 13.3333333,5 Z" id="Combined-Shape" fill="#0E1B30"></path>
    </g>
</svg>