<?xml version="1.0" encoding="UTF-8"?>
<svg width="32px" height="33px" viewBox="0 0 32 33" version="1.1" xmlns="http://www.w3.org/2000/svg" xmlns:xlink="http://www.w3.org/1999/xlink">
    <title>twitter</title>
    <g id="02-WE-CAMBIO-COLOR-BOTONES-ICO" stroke="none" stroke-width="1" fill="none" fill-rule="evenodd">
        <g id="02.0A-HOME-DESKTOP" transform="translate(-973.000000, -4596.000000)" fill-rule="nonzero">
            <g id="Group-16" transform="translate(0.000000, 4532.000000)">
                <g id="Group-92" transform="translate(877.000000, 28.723404)">
                    <g id="Group-68" transform="translate(0.000000, 36.000000)">
                        <g id="twitter" transform="translate(96.000000, 0.000283)">
                            <circle id="Oval" fill="#FFFFFF" cx="15.8864425" cy="15.8861593" r="15.8861593"></circle>
                            <path d="M25.6172743,11.4169204 C24.9364956,11.7187965 24.204177,11.9229735 23.436177,12.0141593 C24.2203186,11.544354 24.8220885,10.8009912 25.1061239,9.91376991 C24.3723894,10.3490265 23.5593628,10.6647788 22.6947965,10.8349735 C22.0021239,10.0972743 21.0152212,9.63624779 19.9224071,9.63624779 C17.8256991,9.63624779 16.1251681,11.3367788 16.1251681,13.4334867 C16.1251681,13.731115 16.1588673,14.0208142 16.224,14.2989027 C13.068177,14.1406018 10.2700177,12.6289558 8.39702655,10.3309027 C8.07023009,10.8916106 7.88276106,11.544354 7.88276106,12.2401416 C7.88276106,13.5572389 8.55362832,14.72 9.5719646,15.4007788 C8.94980531,15.3812389 8.36389381,15.2104779 7.85217699,14.9253097 C7.85189381,14.9414513 7.85189381,14.9575929 7.85189381,14.9734513 C7.85189381,16.8133097 9.16134513,18.3478938 10.8981239,18.6964956 C10.579823,18.7837168 10.2436814,18.8298761 9.8979115,18.8298761 C9.65267257,18.8298761 9.41507965,18.8063717 9.18343363,18.7621947 C9.66654867,20.2704425 11.0686018,21.368354 12.7306195,21.3992212 C11.4307965,22.4178407 9.79369912,23.024708 8.01415929,23.024708 C7.70831858,23.024708 7.40530973,23.0068673 7.10881416,22.971469 C8.78838938,24.0492743 10.7848496,24.6776637 12.9291327,24.6776637 C19.9136283,24.6776637 23.7332389,18.8916106 23.7332389,13.8732743 C23.7332389,13.7087434 23.7295575,13.5447788 23.7221947,13.3822301 C24.464708,12.8470088 25.1083894,12.1784071 25.6172743,11.4169204 L25.6172743,11.4169204 Z" id="Path" fill="#55ACEE"></path>
                        </g>
                    </g>
                </g>
            </g>
        </g>
    </g>
</svg>