<?xml version="1.0" encoding="UTF-8"?>
<svg width="90px" height="28px" viewBox="0 0 90 28" version="1.1" xmlns="http://www.w3.org/2000/svg" xmlns:xlink="http://www.w3.org/1999/xlink">
    <title>Group 4</title>
    <g id="0.2-TOP-CITIES-LINKS" stroke="none" stroke-width="1" fill="none" fill-rule="evenodd">
        <g id="CTE---Desktop" transform="translate(-335.000000, -5334.000000)" fill="#A7E4FA">
            <g id="Group-11" transform="translate(0.000000, 138.000000)">
                <g id="Group-19" transform="translate(0.000000, 4613.000000)">
                    <g id="Group-48" transform="translate(0.000000, 546.276596)">
                        <g id="Group-4" transform="translate(209.000000, 31.000000)">
                            <g transform="translate(126.000000, 6.000000)" id="Group-Copy">
                                <path d="M32.4828737,1.85235735 L30.611227,1.85235735 L30.611227,4.76540532 L32.4828737,4.76540532 C33.3899459,4.76540532 33.9656923,4.18279573 33.9656923,3.31628325 C33.9656923,2.44992106 33.3899459,1.85235735 32.4828737,1.85235735 Z M32.5836836,6.63279194 L30.611227,6.63279194 L30.611227,10.6363636 L28.6100917,10.6363636 L28.6100917,0 L32.5836836,0 C34.7000406,0 35.9669725,1.50878827 35.9669725,3.31628325 C35.9669725,5.12392852 34.7000406,6.63279194 32.5836836,6.63279194 L32.5836836,6.63279194 Z" id="Fill-1"></path>
                                <path d="M40.4898249,4.94128321 C40.2881796,4.46546412 39.8704704,4.11242211 39.2367697,4.11242211 C38.6029241,4.11242211 38.1851424,4.46546412 37.9835696,4.94128321 C37.868292,5.23293669 37.8251082,5.4479124 37.810617,5.8008772 L40.662705,5.8008772 C40.6483587,5.4479124 40.6051749,5.23293669 40.4898249,4.94128321 Z M37.810617,7.16717759 C37.810617,8.19564798 38.4012788,8.94783132 39.4528337,8.94783132 C40.2738333,8.94783132 40.6770513,8.70219995 41.152508,8.19564798 L42.2902856,9.37762832 C41.5270334,10.1912002 40.7922565,10.6363636 39.4383425,10.6363636 C37.6667193,10.6363636 35.9669725,9.77669243 35.9669725,6.53777133 C35.9669725,3.92817927 37.2921939,2.45454545 39.2367697,2.45454545 C41.3252433,2.45454545 42.506422,4.08168923 42.506422,6.27685073 L42.506422,7.16717759 L37.810617,7.16717759 L37.810617,7.16717759 Z" id="Fill-2"></path>
                                <path d="M46.3403868,10.6363636 C44.7923474,10.6363636 44.1412844,9.51593167 44.1412844,8.41045382 L44.1412844,0 L46.022133,0 L46.022133,8.29097113 C46.022133,8.75409804 46.2102616,8.99306341 46.6876059,8.99306341 L47.4110092,8.99306341 L47.4110092,10.6363636 L46.3403868,10.6363636" id="Fill-3"></path>
                                <path d="M57.6511238,10.6363636 L57.6511238,5.74585978 C57.6511238,4.64352252 56.9513975,4.27092237 56.3139317,4.27092237 C55.6919528,4.27092237 54.9610962,4.64352252 54.9610962,5.69931405 L54.9610962,10.6363636 L52.9396648,10.6363636 L52.9396648,5.74585978 C52.9396648,4.64352252 52.2399385,4.27092237 51.6024726,4.27092237 C50.9650068,4.27092237 50.2496372,4.64352252 50.2496372,5.74585978 L50.2496372,10.6363636 L48.2284404,10.6363636 L48.2284404,2.54763692 L50.2030983,2.54763692 L50.2030983,3.29283722 C50.7317647,2.74951732 51.4781081,2.45454545 52.2244516,2.45454545 C53.1263679,2.45454545 53.857068,2.78052177 54.3702476,3.47917634 C55.0544087,2.7649805 55.785187,2.45454545 56.7958246,2.45454545 C57.6045067,2.45454545 58.3352067,2.71843477 58.7861258,3.1686632 C59.439235,3.82077203 59.6724771,4.5815136 59.6724771,5.46642919 L59.6724771,10.6363636 L57.6511238,10.6363636" id="Fill-4"></path>
                                <path d="M65.4741779,4.60360764 C65.2517457,4.3733427 64.9552439,4.25048841 64.5696796,4.25048841 C64.1841154,4.25048841 63.9023082,4.3733427 63.6798759,4.60360764 C63.2795426,5.01803819 63.2350859,5.708833 63.2350859,6.53777133 C63.2350859,7.36670965 63.2795426,8.07279368 63.6798759,8.48730145 C63.9023082,8.71756639 64.1841154,8.84042069 64.5696796,8.84042069 C64.9552439,8.84042069 65.2517457,8.71756639 65.4741779,8.48730145 C65.8745113,8.07279368 65.9190425,7.36670965 65.9190425,6.53777133 C65.9190425,5.708833 65.8745113,5.01803819 65.4741779,4.60360764 Z M66.9719036,9.65391535 C66.4974261,10.175911 65.711454,10.6363636 64.5696796,10.6363636 C63.4278307,10.6363636 62.6567023,10.175911 62.1822249,9.65391535 C61.4853151,8.90180922 61.3073394,7.99611592 61.3073394,6.53777133 C61.3073394,5.09479317 61.4853151,4.18917708 62.1822249,3.43699374 C62.6567023,2.91499811 63.4278307,2.45454545 64.5696796,2.45454545 C65.711454,2.45454545 66.4974261,2.91499811 66.9719036,3.43699374 C67.6687387,4.18917708 67.846789,5.09479317 67.846789,6.53777133 C67.846789,7.99611592 67.6687387,8.90180922 66.9719036,9.65391535 L66.9719036,9.65391535 Z" id="Fill-5"></path>
                                <path d="M72.9138825,4.75223335 C72.6139721,4.44172021 72.3586327,4.27092237 71.8779451,4.27092237 C71.2772178,4.27092237 70.6165084,4.73677017 70.6165084,5.76132296 L70.6165084,10.6363636 L68.6642202,10.6363636 L68.6642202,2.54763692 L70.5714841,2.54763692 L70.5714841,3.32391977 C70.9468631,2.85815006 71.6978478,2.45454545 72.5391833,2.45454545 C73.3044459,2.45454545 73.8453422,2.65634776 74.3862385,3.21528703 L72.9138825,4.75223335" id="Fill-6"></path>
                                <path d="M78.9091465,4.94128321 C78.7077097,4.46546412 78.2896197,4.11242211 77.655601,4.11242211 C77.0223069,4.11242211 76.6042169,4.46546412 76.4027801,4.94128321 C76.2875699,5.23293669 76.2440943,5.4479124 76.2296025,5.8008772 L79.0823241,5.8008772 C79.0678323,5.4479124 79.0243567,5.23293669 78.9091465,4.94128321 Z M76.2296025,7.16717759 C76.2296025,8.19564798 76.8201456,8.94783132 77.8722542,8.94783132 C78.6932178,8.94783132 79.0960914,8.70219995 79.5714242,8.19564798 L80.7097594,9.37762832 C79.9460387,10.1912002 79.2113016,10.6363636 77.8577624,10.6363636 C76.0861331,10.6363636 74.3862385,9.77669243 74.3862385,6.53777133 C74.3862385,3.92817927 75.7115187,2.45454545 77.655601,2.45454545 C79.7446019,2.45454545 80.9256881,4.08168923 80.9256881,6.27685073 L80.9256881,7.16717759 L76.2296025,7.16717759 L76.2296025,7.16717759 Z" id="Fill-7"></path>
                                <polyline id="Fill-8" points="86.8186313 10.6363636 85.4142028 8.18647103 84.0252237 10.6363636 81.7431193 10.6363636 84.3761469 6.45907278 81.8461156 2.45454545 84.1274843 2.45454545 85.4142028 4.7944761 86.7163706 2.45454545 88.9977394 2.45454545 86.4677081 6.45907278 89.1 10.6363636 86.8186313 10.6363636"></polyline>
                                <path d="M8.46288567,16.378113 C9.25404085,16.892684 10.1428343,17.1818182 11.0826217,17.1818182 C12.448508,17.1818182 13.7067072,16.5713018 14.7137615,15.5454545 L14.7137615,15.5454545 L8.40641744,15.5454545 L7.65913201,15.7470298 L0,15.7470298 L0,13.7085789 L5.93865559,13.7085789 L6.62992885,13.9090909 L15.8205296,13.9090909 C16.0201777,13.6522862 16.1968555,13.3785021 16.3486239,13.0909091 L6.10175998,13.0909091 L5.65503144,13.2634508 L0,13.2634508 L0,12.0816726 L5.13731799,12.0816726 L5.73496523,12.2727273 L17.0123549,12.2727273 C17.0843688,12.0069274 17.1362823,11.7338713 17.166055,11.4545455 L5.58134065,11.4545455 L5.05464937,11.6363715 L0,11.6363715 L0,9.63656715 L5.05464937,9.63656715 L5.58134065,9.81818182 L17.166055,9.81818182 C17.1362823,9.53885593 17.0843688,9.26572945 17.0123549,9 L5.73496523,9 L5.13724242,9.19126603 L0,9.19126603 L0,8.00964353 L5.65475611,8.00964353 L6.10162973,8.18181818 L16.3486239,8.18181818 C16.1968569,7.89417944 16.0201807,7.62063027 15.8205344,7.36363636 L15.8205344,7.36363636 L6.62971921,7.36363636 L5.93837767,7.56427196 L0,7.56427196 L0,6.34379177 L7.65882897,6.34379177 L8.40618177,6.54545455 L14.7137615,6.54545455 C13.7067174,5.51966989 12.4483811,4.90909091 11.0825087,4.90909091 C10.142581,4.90909091 9.25364656,5.19830728 8.46242446,5.71284685 L0,5.71284685 L0,0 L12.0311848,0 C18.0272529,0 22.8880734,4.82028199 22.8880734,10.7663438 C22.8880734,16.7124816 18.0272529,21.5326115 12.0311848,21.5326115 L12.0311848,21.5326115 L8.27323758,21.5326115 L8.27323758,27 L0,27 L0,16.378113 Z" id="Combined-Shape"></path>
                                <path d="M32.7128613,23.7272727 C31.4338235,23.7272727 30.4978341,23.3002416 29.7334441,22.5407367 C28.6258555,21.4175435 28.6100917,20.1517528 28.6100917,18.0000761 C28.6100917,15.8483233 28.6258555,14.5825326 29.7334441,13.459111 C30.4978341,12.6998346 31.4338235,12.2727273 32.7128613,12.2727273 C34.7876664,12.2727273 36.3787507,13.4750229 36.7844037,15.8324115 L34.5691513,15.8324115 C34.3508614,14.9147779 33.7892978,14.2343755 32.7128613,14.2343755 C32.1201456,14.2343755 31.6364248,14.4559992 31.3245284,14.8198398 C30.9189505,15.2945304 30.7785033,15.8483233 30.7785033,18.0000761 C30.7785033,20.1517528 30.9189505,20.7055458 31.3245284,21.1801602 C31.6364248,21.5440769 32.1201456,21.7654723 32.7128613,21.7654723 C33.7892978,21.7654723 34.3663249,21.0850698 34.584915,20.1676647 L36.7844037,20.1676647 C36.3787507,22.5249771 34.7719778,23.7272727 32.7128613,23.7272727" id="Fill-16"></path>
                                <path d="M41.4721122,17.6944902 C41.2218121,17.4641704 40.8883462,17.3414022 40.4545355,17.3414022 C40.0375827,17.3414022 39.7037957,17.4641704 39.4535758,17.6944902 C39.0032283,18.0935979 38.9531362,18.8150646 38.9531362,19.6286445 C38.9531362,20.4576627 39.0032283,21.1791294 39.4535758,21.5783848 C39.7037957,21.8086307 40.0375827,21.9313251 40.4545355,21.9313251 C40.8883462,21.9313251 41.2218121,21.8086307 41.4721122,21.5783848 C41.9227006,21.1791294 41.9725519,20.4576627 41.9725519,19.6286445 C41.9725519,18.8150646 41.9227006,18.0935979 41.4721122,17.6944902 Z M43.1571024,22.744905 C42.6067312,23.2667809 41.7391097,23.7272727 40.4545355,23.7272727 C39.1699613,23.7272727 38.3191977,23.2667809 37.7685857,22.744905 C36.9845314,21.9774925 36.7844037,21.0716518 36.7844037,19.6286445 C36.7844037,18.185711 36.9845314,17.2955303 37.7685857,16.5278962 C38.3191977,16.0059464 39.1699613,15.5454545 40.4545355,15.5454545 C41.7391097,15.5454545 42.6067312,15.990508 43.1571024,16.5278962 C43.9411567,17.2955303 44.1412844,18.185711 44.1412844,19.6286445 C44.1412844,21.0716518 43.9579344,21.9927092 43.1571024,22.744905 L43.1571024,22.744905 Z" id="Fill-17"></path>
                                <path d="M49.2090192,17.8433294 C48.9083167,17.5326927 48.6529979,17.3618351 48.1727123,17.3618351 C47.5718133,17.3618351 46.9108605,17.8277154 46.9108605,18.8522637 L46.9108605,23.7272727 L44.9587156,23.7272727 L44.9587156,15.638541 L46.8659105,15.638541 L46.8659105,16.4149086 C47.2413369,15.9491777 47.992551,15.5454545 48.8331592,15.5454545 C49.5990435,15.5454545 50.1398887,15.7473161 50.6807339,16.3061335 L49.2090192,17.8433294" id="Fill-18"></path>
                                <path d="M54.767926,17.4119262 C53.5978447,17.4119262 53.4477232,18.4490681 53.4477232,19.7889848 C53.4477232,21.1292086 53.5978447,22.1820881 54.767926,22.1820881 C55.9379351,22.1820881 56.0876235,21.1292086 56.0876235,19.7889848 C56.0876235,18.4490681 55.9379351,17.4119262 54.767926,17.4119262 Z M57.2273918,23.2988389 C56.7925448,23.7774135 56.1027079,24.0485597 55.3378101,24.0485597 C54.5426716,24.0485597 53.9429797,23.8253938 53.4477232,23.21923 L53.4477232,27 L51.4981651,27 L51.4981651,15.641108 L53.3877468,15.641108 L53.3877468,16.4227645 C53.9278954,15.7847418 54.4977795,15.5454545 55.3378101,15.5454545 C56.1027079,15.5454545 56.7925448,15.8166775 57.2273918,16.2952521 C57.9777104,17.1088443 58.0376147,18.4010878 58.0376147,19.7889848 C58.0376147,21.1771122 57.9777104,22.48517 57.2273918,23.2988389 L57.2273918,23.2988389 Z" id="Fill-19"></path>
                            </g>
                        </g>
                    </g>
                </g>
            </g>
        </g>
    </g>
</svg>