<?xml version="1.0" encoding="utf-8"?>
<!-- Generator: Adobe Illustrator 22.1.0, SVG Export Plug-In . SVG Version: 6.00 Build 0)  -->
<svg version="1.1" id="Layer_1" xmlns="http://www.w3.org/2000/svg" xmlns:xlink="http://www.w3.org/1999/xlink" x="0px" y="0px"
	 viewBox="0 0 100 35.2" style="enable-background:new 0 0 100 35.2;" xml:space="preserve">
<style type="text/css">
	.st0{fill:#231F20;}
	.st1{fill:#FFFFFF;}
	.st2{fill:#FFAC27;}
</style>
<polygon class="st0" points="50.1,0 50.1,0 50.1,0 "/>
<g>
	<path class="st1" d="M30.9,28.1L30.9,28.1L30.6,30c-0.7,0.4-1.7,0.5-2.8,0.5c-2.3,0-2.7-1.2-2.7-2.3c0-0.3,0-0.7,0.1-1l0.9-4.7
		h-1.7l0.4-2.2h1.7l0.9-2.6h2.8l-0.5,2.6h2.8l-0.4,2.2h-2.8l-0.8,4.2c0,0.2-0.1,0.4-0.1,0.6c0,0.4,0.2,0.8,0.9,0.8
		C29.7,28.2,30.6,28.1,30.9,28.1z M36.1,16c-0.9,0-1.8,0.8-1.8,1.8c0,0.8,0.6,1.6,1.6,1.6c0.9,0,1.8-0.8,1.8-1.8
		C37.7,16.7,37,16,36.1,16z M37,20.3h-3.1l-1.4,7.4c-0.1,0.3-0.1,0.8-0.1,1.1c0,0.8,0.4,1.7,2.1,1.7c1.1,0,2-0.2,2.4-0.6l0.3-1.7
		h-1.7L37,20.3z M24.8,15.7c-1.5-0.1-3.7,0-5.1,0.2l-0.4,1.9c0.6,0,1.2,0.1,1.6,0.2l0.2,0.1l-1.7,8.8c-0.1,0.7-0.2,1.3-0.2,1.8
		c0,0.5,0.2,1.9,2.1,1.9c1,0,1.8-0.3,2.4-0.6l0.3-1.6h-1.7L24.8,15.7z M19,22.7c0,3.2-3.4,4-6.2,3.7c0,0.2,0,0.4,0,0.7
		c0,1,0.9,1.3,2.2,1.3c0.9,0,1.9-0.2,2.7-0.5l0,0l0.1,2.1c-0.8,0.3-2.2,0.6-4,0.6c-1.7,0-4.3-0.9-4.3-3.8c0-5,3.7-6.6,6-6.6
		C17.4,20.1,19,21,19,22.7z M16,22.9c0-0.6-0.5-0.7-0.9-0.7c-1.2,0-2,1.2-2.1,2.2C13.8,24.5,16,24.3,16,22.9z M84.9,24.2
		c0,3.2-2,6.3-5.6,6.3c-2.5,0-4.4-1.1-4.4-3.9c0-2.9,2.1-6.5,5.8-6.5C82.9,20.1,84.9,21.3,84.9,24.2z M81.6,24.3
		c0-0.8-0.3-1.6-1.1-1.6c-1.5,0-2.2,2.7-2.2,4c0,0.7,0.3,1.4,1.1,1.4C80.7,28.1,81.6,25.8,81.6,24.3z M85.7,27.8
		c-0.8,0-1.5,0.6-1.5,1.5c0,0.7,0.5,1.3,1.3,1.3c0.8,0,1.5-0.6,1.5-1.5C87.1,28.4,86.5,27.8,85.7,27.8z M94.3,25.3
		c0,2.2-2.3,2.7-4.2,2.5c0,0.1,0,0.2,0,0.3c0,0.5,0.2,1,1.5,1c0.7,0,1.3-0.2,1.9-0.3l0,1.4c-0.5,0.2-1.4,0.4-2.6,0.4
		c-1.3,0-3.1-0.6-3.1-2.6c0-3.4,2.6-4.5,4.1-4.5C93.2,23.6,94.3,24.2,94.3,25.3z M92.3,25.5c0-0.4-0.3-0.5-0.6-0.5
		c-0.8,0-1.4,0.8-1.5,1.5C90.8,26.5,92.3,26.4,92.3,25.5z M74.3,24.1c0,4.1-3.3,6.5-5.2,6.5c-0.9,0-1.3-0.1-1.9-0.2l-0.9,4.8h-2.5
		c-0.7,0-0.6-0.4-0.5-0.9l2.3-11.7l-0.2-0.1c-0.4-0.1-1.1-0.2-1.6-0.2l0.4-1.9c1.4-0.2,2.8-0.2,4.2-0.2L67.9,22H68
		c1.1-1.5,2.2-1.9,3.3-1.9C72.2,20.1,74.3,20.8,74.3,24.1z M71.1,24.3c0-1.1-0.3-1.7-0.9-1.7c-1.1,0-1.7,1.2-2.1,3.3l-0.4,2.3
		c0.2,0,0.5,0.1,0.7,0.1C70.1,28.3,71.1,25.7,71.1,24.3z M61.6,28.3l1.1-5.8c0.3-1.7-1-2.4-1.9-2.4c-1.4,0-2.5,0.7-3.4,1.7h0
		c-0.2-1.1-0.9-1.7-2-1.7c-1,0-2.1,0.5-3.4,2.1H52l0.3-1.9c-1.5-0.1-2.8,0-4.2,0.2l-0.4,1.9c0.6,0,1.1,0.1,1.5,0.2l0.2,0L48,29.8
		c-0.1,0.4,0.1,0.6,0.5,0.6H51l1.2-6.2c0.3-0.6,1.1-1.2,1.5-1.2c0.5,0,0.6,0.4,0.5,0.8l-1.2,5.9c-0.1,0.3-0.1,0.6,0.4,0.6h2.6
		l1.2-6.1c0.4-0.7,1.2-1.2,1.7-1.2c0.4,0,0.5,0.4,0.4,0.8l-0.9,4.7c-0.2,1.1,0.2,2,1.9,2c0.9,0,1.9-0.2,2.6-0.6l0.3-1.7L61.6,28.3z
		 M97.5,25.8c0-0.4,0.3-0.7,0.8-0.7c0.3,0,0.9,0.1,1.3,0.5l0.4-1.3c-0.6-0.6-1.5-0.8-2.2-0.8c-1.7,0-2.6,0.8-2.6,2.1
		c0,1.4,2,2,2,2.9c0,0.3-0.3,0.5-0.8,0.5c-0.6,0-1.2-0.2-1.6-0.5L94.5,30c0.4,0.3,1.5,0.6,2.3,0.6c1.8,0,2.8-0.8,2.8-2
		C99.6,27.4,97.5,26.5,97.5,25.8z M47.2,22.7c0,3.2-3.4,4-6.2,3.7c0,0.2,0,0.4,0,0.7c0,1,0.9,1.3,2.2,1.3c0.9,0,1.9-0.2,2.7-0.5l0,0
		L46,30c-0.8,0.3-2.2,0.6-4,0.6c-1.7,0-4.3-0.9-4.3-3.8c0-5,3.7-6.6,6-6.6C45.7,20.1,47.2,21,47.2,22.7z M44.3,22.9
		c0-0.6-0.5-0.7-0.9-0.7c-1.2,0-1.9,1.2-2.1,2.2C42.1,24.5,44.3,24.3,44.3,22.9z"/>
	<path class="st2" d="M60.4,12.4c-3-2.8-7.1-4.5-11.6-4.5c-0.3,0-0.7,0-1,0c-0.9,0-1.8,0.2-2.6,0.3c-4-4-9.6-6.4-15.7-6.4
		c-7,0-13.3,3.2-17.4,8.3c-0.1,0.1-0.2,0.2-0.3,0.3C5.2,10.8,0,16.2,0,22.8c0,5.2,3.1,9.6,7.6,11.5c0,0,0,0,0,0
		c-1.7-0.8-3.1-2-4.2-3.4c-0.1-0.1-0.1-0.2-0.2-0.2c0,0,0,0,0,0c0,0,0,0,0,0c-0.3-0.5-0.6-1-0.9-1.5c-0.7-1.5-1.2-3.2-1.2-5
		c0-6.2,5-11.3,11.3-11.3c0,0,0.1,0,0.1,0c3.7-5.3,9.9-8.7,16.8-8.7c5.8,0,11,2.4,14.7,6.2c0,0,0.1,0.1,0.1,0.1
		c1.7-0.6,3.6-0.9,5.5-0.9c5.3,0,10.1,2.3,13.4,6C62.4,14.5,61.4,13.4,60.4,12.4z"/>
	<path class="st1" d="M63.2,15.7c-3.3-3.7-8.1-6-13.4-6c-1.9,0-3.8,0.3-5.5,0.9c0,0-0.1-0.1-0.1-0.1c-3.7-3.8-9-6.2-14.7-6.2
		c-6.9,0-13.1,3.4-16.8,8.7c0,0-0.1,0-0.1,0c-6.2,0-11.3,5-11.3,11.3c0,1.8,0.4,3.5,1.2,5c0.3,0.5,0.6,1,0.9,1.5
		c0.1,0.1,0.1,0.2,0.2,0.2c1,1.3,2.3,2.4,3.8,3.2c0,0,0,0,0,0c0.1,0.1,0.3,0.1,0.4,0.2c0.4,0.2,0.9,0.4,1.3,0.5l0-0.1l0-0.1
		c-3.5-1.7-5.8-5.3-5.8-9.4c0-5.8,4.7-10.5,10.5-10.5c0.2,0,0.4,0,0.6,0c0.4-0.6,0.8-1.1,1.2-1.6c3.3-4,8.4-6.6,14-6.6
		c4.7,0,9,1.8,12.2,4.7c0,0,0.1,0.1,0.1,0.1c0.6,0.6,1.2,1.2,1.8,1.9c2.4-1.2,5-1.9,7.9-1.9c4.8,0,9.2,2,12.3,5.1c0,0,0,0,0,0
		l0.2-0.2C63.6,16.2,63.4,15.9,63.2,15.7z"/>
</g>
</svg>
