<?xml version="1.0" encoding="UTF-8"?><svg version="1.1" width="32px" height="32px" viewBox="0 0 32.0 32.0" xmlns="http://www.w3.org/2000/svg" xmlns:xlink="http://www.w3.org/1999/xlink"><defs><clipPath id="i0"><path d="M18.6457237,0.235975292 C22.281112,3.30569956 23.6120102,8.31931718 21.9777193,12.787913 C20.3434284,17.2565087 16.0919684,20.2285012 11.3338958,20.2285012 C6.57582314,20.2285012 2.32436309,17.2565087 0.690072178,12.787913 C-0.944218738,8.31931718 0.386679518,3.30569956 4.02206779,0.235975292 C4.44403897,-0.12033745 5.07496275,-0.0671107707 5.43127549,0.354860407 C5.78758823,0.776831585 5.73436155,1.40775536 5.31239037,1.7640681 C2.31854121,4.29207632 1.22250735,8.4209379 2.56839398,12.1009579 C3.91428062,15.780978 7.41548301,18.2285012 11.3338958,18.2285012 C15.2523085,18.2285012 18.7535109,15.780978 20.0993975,12.1009579 C21.4452842,8.4209379 20.3492503,4.29207632 17.3554011,1.7640681 C16.9334299,1.40775536 16.8802033,0.776831585 17.236516,0.354860407 C17.5928288,-0.0671107707 18.2237525,-0.12033745 18.6457237,0.235975292 Z"></path></clipPath></defs><g transform="translate(4.666104249297291 6.999978302603978)"><g clip-path="url(#i0)"><polygon points="0,-2.77555756e-17 22.6677915,-2.77555756e-17 22.6677915,20.2285012 0,20.2285012 0,-2.77555756e-17" stroke="none" fill="#0D1B30"></polygon></g></g></svg>